<?xml version="1.0" encoding="UTF-8"?>
<svg width="200px" height="200px" viewBox="0 0 200 200" version="1.1" xmlns="http://www.w3.org/2000/svg" xmlns:xlink="http://www.w3.org/1999/xlink">
    <!-- Generator: Sketch 46.2 (44496) - http://www.bohemiancoding.com/sketch -->
    <title>promoting</title>
    <desc>Created with Sketch.</desc>
    <defs></defs>
    <g id="Page-1" stroke="none" stroke-width="1" fill="none" fill-rule="evenodd" stroke-linecap="round" stroke-linejoin="round">
        <g id="promoting" stroke-width="3">
            <g id="Group-24" transform="translate(9.000000, 30.000000)">
                <g id="Group-22">
                    <g id="Group-21" transform="translate(0.000000, 40.893774)" stroke="#5E7BFF" fill="#F7FAFD">
                        <rect id="Rectangle-10" x="23.5139199" y="37.9877399" width="28.6256417" height="37.0136953" rx="14.3128208"></rect>
                        <rect id="Rectangle-10-Copy" x="27.6032973" y="44.8060521" width="19.4245425" height="25.3251599" rx="9.71227127"></rect>
                        <path d="M25.9748827,7.07162773 L95.5891962,0 L95.5891962,67.2090782 L25.9452312,60.1344384 L25.9452312,60.0972106 C12.0469611,59.4706995 0.921888689,48.0560873 0.818587929,33.981747 C0.818115042,33.9173179 0.817878596,33.8528873 0.817878596,33.7884564 C0.817878596,19.5589614 11.9274155,7.90538654 25.9748827,7.07162773 Z" id="Combined-Shape"></path>
                        <ellipse id="Oval-4" cx="95.5891962" cy="33.6045391" rx="9.71227127" ry="33.6045391"></ellipse>
                    </g>
                    <g id="Group-23" transform="translate(107.346156, 0.000000)" stroke="#C96DD8">
                        <g id="Group-16" transform="translate(25.065447, 19.453516) rotate(166.000000) translate(-25.065447, -19.453516) translate(3.085044, 5.651868)" fill="#F7E6FA">
                            <rect id="Rectangle-11" x="0" y="0" width="43.5097923" height="27.1046768"></rect>
                            <path d="M43.5097923,0 C36.2581602,9.03489226 29.0065282,13.5523384 21.7548961,13.5523384 C14.5032641,13.5523384 7.25163205,9.03489226 0,0 L43.5097923,0 Z" id="Rectangle-11-Copy"></path>
                            <path d="M43.5097923,7.97196376 C36.2581602,20.7271058 29.0065282,27.1046768 21.7548961,27.1046768 C14.5032641,27.1046768 7.25163205,20.7271058 0,7.97196376 L43.5097923,7.97196376 Z" id="Rectangle-11-Copy-2" transform="translate(21.754896, 17.538320) rotate(180.000000) translate(-21.754896, -17.538320) "></path>
                        </g>
                        <g id="Group-17" transform="translate(26.580953, 50.094873)" fill="#F7E6FA">
                            <rect id="Rectangle-12" x="0" y="0" width="48.9563531" height="33.9225124" rx="10"></rect>
                            <polygon id="Triangle" transform="translate(24.478177, 16.537225) rotate(90.000000) translate(-24.478177, -16.537225) " points="24.4781765 11.0248165 30.2639273 22.049633 18.6924257 22.049633"></polygon>
                        </g>
                        <g id="Group-19" transform="translate(26.069781, 117.664779) rotate(5.000000) translate(-26.069781, -117.664779) translate(3.067033, 97.729064)">
                            <path d="M31.2693591,33.9691759 C39.8892759,31.4329235 46.0054955,25.0464517 46.0054955,17.5689129 C46.0054955,7.86587023 35.7068145,0 23.0027478,0 C10.298681,0 0,7.86587023 0,17.5689129 C0,27.2719556 10.298681,35.1378258 23.0027478,35.1378258 C23.8429582,35.1378258 24.6726472,35.1034195 25.4895313,35.0363511 L25.4895313,39.6969125 L31.2693591,33.9691759 Z" id="Combined-Shape" fill="#F7E6FA"></path>
                            <g id="Group-18" transform="translate(13.020423, 13.232304)">
                                <path d="M0.263473629,0.711894205 L20.2874694,0.711894205" id="Line"></path>
                                <path d="M0.263473629,7.86830462 L20.2874694,7.86830462" id="Line-Copy-3"></path>
                            </g>
                        </g>
                    </g>
                </g>
            </g>
        </g>
    </g>
</svg>