<?xml version="1.0" encoding="UTF-8"?>
<svg width="250px" height="250px" viewBox="0 0 250 250" version="1.1" xmlns="http://www.w3.org/2000/svg" xmlns:xlink="http://www.w3.org/1999/xlink">
    <!-- Generator: Sketch 46.2 (44496) - http://www.bohemiancoding.com/sketch -->
    <title>Reasearch + BG</title>
    <desc>Created with Sketch.</desc>
    <defs></defs>
    <g id="Page-1" stroke="none" stroke-width="1" fill="none" fill-rule="evenodd">
        <g id="Reasearch-+-BG">
            <g id="research-+-BG" transform="translate(9.000000, 55.000000)" stroke-width="3">
                <g id="Group-11" stroke-linecap="round" stroke-linejoin="round" transform="translate(18.148148, 0.000000)" stroke="#5E7BFF" fill="#F7FAFD">
                    <path d="M17.3446602,0 L194.467638,0 L194.467638,0 C198.885916,-8.11624501e-16 202.467638,3.581722 202.467638,8 L202.467638,125.735793 L9.34466019,125.735793 L9.34466019,8 L9.34466019,8 C9.34466019,3.581722 12.9263822,8.11624501e-16 17.3446602,0 Z" id="Rectangle-13"></path>
                    <path d="M1.29979937,125.735793 L212.58909,125.735793 L212.58909,125.735793 C213.141374,125.735793 213.58909,126.183509 213.58909,126.735793 C213.58909,126.822333 213.577856,126.908507 213.555671,126.992155 L212.163978,132.239369 L212.163978,132.239369 C211.147099,136.073395 207.67722,138.742945 203.710635,138.742945 L10.1782538,138.742945 L10.1782538,138.742945 C6.21166869,138.742945 2.74178964,136.073395 1.72491039,132.239369 L0.333218366,126.992155 L0.333218366,126.992155 C0.191633883,126.458327 0.509610039,125.910797 1.04343799,125.769212 C1.12708576,125.747027 1.21325953,125.735793 1.29979937,125.735793 Z" id="Rectangle-13-Copy"></path>
                    <path d="M86.1785329,125.735793 L127.710356,125.735793 L127.710356,125.980242 L127.710356,125.980242 C127.710356,129.570093 124.800207,132.480242 121.210356,132.480242 L92.6785329,132.480242 L92.6785329,132.480242 C89.088682,132.480242 86.1785329,129.570093 86.1785329,125.980242 L86.1785329,125.735793 Z" id="Rectangle-14"></path>
                    <rect id="Rectangle-15" x="18.6893204" y="9.75536329" width="174.433657" height="115.98043"></rect>
                </g>
                <g id="Group-14" transform="translate(67.474840, 81.666667) scale(-1, 1) translate(-67.474840, -81.666667) translate(0.715581, 23.333333)">
                    <g id="Group-12" transform="translate(70.437194, 0.000000)" stroke="#5E7BFF">
                        <path d="M0.547326761,27.6964008 L0.547326761,8.20216325 C0.547326761,3.96204257 4.01462245,0.49673103 8.25176691,0.49673103 L54.0041968,0.49673103 C58.2443175,0.49673103 61.709629,3.96204257 61.709629,8.20216325 L61.709629,77.3817063 L61.709629,107.971985 C61.709629,112.212105 58.2443175,115.677417 54.0041968,115.677417 L8.25176691,115.677417 C4.01462245,115.677417 0.547326761,112.212105 0.547326761,107.971985 L0.547326761,95.8190883" id="Stroke-3" fill="#FFFFFF" stroke-linecap="round" stroke-linejoin="round"></path>
                        <path d="M25.2472698,6.11375004 L37.0082971,6.11375004" id="Stroke-5" stroke-linecap="round" stroke-linejoin="round"></path>
                        <path d="M34.2583695,108.013552 C34.2583695,109.875674 32.7494262,111.384617 30.8873049,111.384617 C29.0251836,111.384617 27.5162403,109.875674 27.5162403,108.013552 C27.5162403,106.151431 29.0251836,104.642488 30.8873049,104.642488 C32.7494262,104.642488 34.2583695,106.151431 34.2583695,108.013552 Z" id="Stroke-7"></path>
                    </g>
                    <g id="Group-9" transform="translate(50.595731, 48.611585)" stroke="#C96DD8" stroke-linecap="round" stroke-linejoin="round">
                        <path d="M0.826727632,1.48810974 L63.6580276,1.48810974" id="Line"></path>
                        <path d="M0.826727632,9.424695 L63.6580276,9.424695" id="Line-Copy"></path>
                        <path d="M0.826727632,17.3612803 L63.6580276,17.3612803" id="Line-Copy-2"></path>
                    </g>
                    <g id="Group-10" transform="translate(0.000000, 16.865244)" stroke="#5E7BFF" stroke-linecap="round" stroke-linejoin="round">
                        <circle id="Oval-7" fill-opacity="0.7" fill="#F7FAFD" transform="translate(51.861510, 45.661562) rotate(60.000000) translate(-51.861510, -45.661562) " cx="51.8615095" cy="45.6615624" r="33.2344508"></circle>
                        <path d="M11.9935283,57.3553143 L11.9935283,81.1650701" id="Line-3" fill="#FFFFFF" transform="translate(11.993528, 69.260192) rotate(60.000000) translate(-11.993528, -69.260192) "></path>
                    </g>
                </g>
            </g>
            <polyline id="Stroke-1-Copy-2" stroke="#F7E6FA" stroke-width="3" transform="translate(109.646411, 226.636802) rotate(158.000000) translate(-109.646411, -226.636802) " points="89.1464114 212.390185 94.9963499 211.583297 96.00496 217.281944 101.804468 216.424625 102.813078 222.173703 108.663017 221.366815 109.671627 227.065462 115.471135 226.208143 116.479745 231.957221 122.279253 231.049472 123.287863 236.798549 129.137801 235.991661 130.146411 241.690308"></polyline>
            <path d="M163.576997,35.8084848 C158.86753,37.485829 153.448418,36.5181304 149.642137,32.8408758 C145.061697,28.3894623 144.352052,21.4865458 147.5132,16.2609735" id="Stroke-6-Copy-2" stroke="#CCD4FC" stroke-width="2" stroke-linecap="round" stroke-linejoin="round" stroke-dasharray="1,4" transform="translate(154.576997, 26.432587) rotate(-205.000000) translate(-154.576997, -26.432587) "></path>
            <polygon id="Fill-18-Copy-3" fill="#CCD4FC" opacity="0.481431159" points="41.3774834 27 49.9536424 32.3774834 44.5761589 41 36 35.5761589"></polygon>
            <path d="M222.79092,219.862657 L222.79092,219.862657 L214.697897,232.839402 L201.79092,224.676611 L201.79092,224.676611 L201.79092,224.676611 C206.260573,217.548285 215.662593,215.393004 222.79092,219.862657 Z" id="Fill-18-Copy-3" fill="#CCD4FC" transform="translate(212.290920, 222.304518) rotate(-209.000000) translate(-212.290920, -222.304518) "></path>
            <circle id="Oval-6-Copy-2" fill="#CCD4FC" opacity="0.481431159" cx="235" cy="41" r="4"></circle>
            <path d="M37.2326926,220.388803 L42,213.915587 L40.6362322,213 L35.9113173,219.415655 L29.9155867,215 L29,216.363768 L34.9381686,220.73703 L31,226.084413 L32.3637678,227 L36.259544,221.710179 L42.0844133,226 L43,224.636232 L37.2326926,220.388803 Z" id="Combined-Shape-Copy-2" stroke="#F7E6FA" fill="#F7E6FA"></path>
            <path d="M116.487747,39.5914094 L101.885552,31.801776" id="Stroke-16-Copy-2" stroke="#F7E6FA" stroke-width="3"></path>
        </g>
    </g>
</svg>