<?xml version="1.0" encoding="UTF-8"?>
<svg width="200px" height="200px" viewBox="0 0 200 200" version="1.1" xmlns="http://www.w3.org/2000/svg" xmlns:xlink="http://www.w3.org/1999/xlink">
    <!-- Generator: Sketch 46.2 (44496) - http://www.bohemiancoding.com/sketch -->
    <title>research</title>
    <desc>Created with Sketch.</desc>
    <defs></defs>
    <g id="Page-1" stroke="none" stroke-width="1" fill="none" fill-rule="evenodd">
        <g id="research" stroke-width="3">
            <g id="Group-15" transform="translate(11.000000, 46.000000)">
                <g id="Group-11" stroke-linecap="round" stroke-linejoin="round" transform="translate(14.000000, 0.000000)" stroke="#5E7BFF" fill="#F7FAFD">
                    <path d="M15.2087379,0 L148.18932,0 L148.18932,0 C152.607598,-8.11624501e-16 156.18932,3.581722 156.18932,8 L156.18932,96.9961835 L7.20873786,96.9961835 L7.20873786,8 L7.20873786,8 C7.20873786,3.581722 10.7904599,8.11624501e-16 15.2087379,0 Z" id="Rectangle-13"></path>
                    <path d="M1.29979937,96.9961835 L163.700201,96.9961835 L163.700201,96.9961835 C164.252485,96.9961835 164.700201,97.4438988 164.700201,97.9961835 C164.700201,98.0827234 164.688967,98.1688972 164.666782,98.2525449 L163.669355,102.013228 L163.669355,102.013228 C162.884905,104.970905 160.208141,107.030271 157.148204,107.030271 L7.85179577,107.030271 L7.85179577,107.030271 C4.7918587,107.030271 2.11509486,104.970905 1.33064516,102.013228 L0.333218366,98.2525449 L0.333218366,98.2525449 C0.191633883,97.718717 0.509610039,97.171187 1.04343799,97.0296025 C1.12708576,97.0074171 1.21325953,96.9961835 1.29979937,96.9961835 Z" id="Rectangle-13-Copy"></path>
                    <path d="M66.4805825,96.9961835 L98.5194175,96.9961835 L98.5194175,96.9961835 L98.5194175,96.9961835 C98.5194175,99.869644 96.1900175,102.199044 93.3165571,102.199044 L71.6834429,102.199044 L71.6834429,102.199044 C68.8099825,102.199044 66.4805825,99.869644 66.4805825,96.9961835 L66.4805825,96.9961835 Z" id="Rectangle-14"></path>
                    <rect id="Rectangle-15" x="14.4174757" y="7.52556596" width="134.563107" height="89.4706176"></rect>
                </g>
                <g id="Group-14" transform="translate(52.052020, 63.000000) scale(-1, 1) translate(-52.052020, -63.000000) translate(0.552020, 18.000000)">
                    <g id="Group-12" transform="translate(54.337264, 0.000000)" stroke="#5E7BFF">
                        <path d="M0.422223502,21.3657949 L0.422223502,6.32738308 C0.422223502,3.05643284 3.09699446,0.383192509 6.36564876,0.383192509 L41.6603804,0.383192509 C44.9313306,0.383192509 47.604571,3.05643284 47.604571,6.32738308 L47.604571,59.6944592 L47.604571,83.2926738 C47.604571,86.563624 44.9313306,89.2368643 41.6603804,89.2368643 L6.36564876,89.2368643 C3.09699446,89.2368643 0.422223502,86.563624 0.422223502,83.2926738 L0.422223502,73.9175824" id="Stroke-3" fill="#FFFFFF" stroke-linecap="round" stroke-linejoin="round"></path>
                        <path d="M19.4764653,4.71632146 L28.5492578,4.71632146" id="Stroke-5" stroke-linecap="round" stroke-linejoin="round"></path>
                        <path d="M26.427885,83.3247404 C26.427885,84.761234 25.2638431,85.925276 23.8273495,85.925276 C22.3908559,85.925276 21.226814,84.761234 21.226814,83.3247404 C21.226814,81.8882468 22.3908559,80.7242049 23.8273495,80.7242049 C25.2638431,80.7242049 26.427885,81.8882468 26.427885,83.3247404 Z" id="Stroke-7"></path>
                    </g>
                    <g id="Group-9" transform="translate(39.030993, 37.500365)" stroke="#C96DD8" stroke-linecap="round" stroke-linejoin="round">
                        <path d="M0.637761316,1.14797037 L49.1076213,1.14797037" id="Line"></path>
                        <path d="M0.637761316,7.270479 L49.1076213,7.270479" id="Line-Copy"></path>
                        <path d="M0.637761316,13.3929876 L49.1076213,13.3929876" id="Line-Copy-2"></path>
                    </g>
                    <g id="Group-10" transform="translate(0.000000, 13.010331)" stroke="#5E7BFF" stroke-linecap="round" stroke-linejoin="round">
                        <circle id="Oval-7" fill-opacity="0.7" fill="#F7FAFD" transform="translate(40.007450, 35.224634) rotate(60.000000) translate(-40.007450, -35.224634) " cx="40.0074502" cy="35.2246339" r="25.6380049"></circle>
                        <path d="M9.25215043,44.2455282 L9.25215043,62.6130541" id="Line-3" fill="#FFFFFF" transform="translate(9.252150, 53.429291) rotate(60.000000) translate(-9.252150, -53.429291) "></path>
                    </g>
                </g>
            </g>
        </g>
    </g>
</svg>