<?xml version="1.0" encoding="UTF-8"?>
<svg width="250px" height="250px" viewBox="0 0 250 250" version="1.1" xmlns="http://www.w3.org/2000/svg" xmlns:xlink="http://www.w3.org/1999/xlink">
    <!-- Generator: Sketch 46.2 (44496) - http://www.bohemiancoding.com/sketch -->
    <title>tools + BG</title>
    <desc>Created with Sketch.</desc>
    <defs></defs>
    <g id="Page-1" stroke="none" stroke-width="1" fill="none" fill-rule="evenodd">
        <g id="tools-+-BG">
            <g id="Group-15-Copy" transform="translate(38.000000, 56.000000)" stroke-linecap="round" stroke-width="3" stroke-linejoin="round">
                <g id="Group-10">
                    <g id="Group-11" transform="translate(0.893542, 0.051809)" stroke="#5E7BFF">
                        <path d="M4.03092298,40.3092298 C9.2604348,17.9152132 24.7326644,6.71820497 50.4476118,6.71820497 C76.1625592,6.71820497 91.4312069,17.9152132 96.2535548,40.3092298" id="Oval"></path>
                        <rect id="Rectangle-4" fill="#FFFFFF" x="42.9965118" y="0" width="13.4364099" height="13.4364099"></rect>
                        <rect id="Rectangle-4-Copy-2" fill="#FFFFFF" x="0" y="0" width="13.4364099" height="13.4364099" rx="6.71820497"></rect>
                        <rect id="Rectangle-4-Copy" fill="#FFFFFF" x="85.9930236" y="0" width="13.4364099" height="13.4364099" rx="6.71820497"></rect>
                        <path d="M59.1202037,6.71820497 L85.9930236,6.71820497" id="Line-3" fill="#FFFFFF"></path>
                        <path d="M16.1236919,6.71820497 L42.9965118,6.71820497" id="Line-3-Copy" fill="#FFFFFF"></path>
                    </g>
                    <g id="Group-9" transform="translate(27.619287, 28.302926)" stroke="#C96DD8" fill="#F7E6FA">
                        <polygon id="Rectangle-5" points="25.7780013 0 51.5560025 51.5560025 0 51.5560025"></polygon>
                        <path d="M25.7780013,4.60321451 L25.7780013,26.6986442" id="Line-4"></path>
                        <circle id="Oval-2" cx="25.7780013" cy="29.4605729" r="5.52385742"></circle>
                        <polygon id="Rectangle-5-Copy" points="0 51.5560025 51.5560025 51.5560025 42.3495735 84.699147 9.20642903 84.699147"></polygon>
                        <rect id="Rectangle-6" x="3.68257161" y="84.699147" width="44.1908593" height="11.0477148" rx="5.52385742"></rect>
                    </g>
                </g>
                <g id="Group-14" transform="translate(67.412365, 35.338012)">
                    <g id="Group-12-Copy" transform="translate(53.335366, 53.303156) rotate(51.000000) translate(-53.335366, -53.303156) translate(32.839320, 2.632377)" stroke="#C96DD8" fill="#F7E6FA">
                        <path d="M39.9623714,49.2858343 L39.9623714,81.2562767 L39.9623714,81.2562767 C39.9623714,92.2915808 31.0164898,101.237462 19.9811857,101.237462 L19.9811857,101.237462 C8.94588156,101.237462 -6.25974966e-14,92.2915808 -6.39488462e-14,81.2562767 L-2.74606726e-15,22.6447986 L0,22.6447986 C5.39041883e-17,22.5744009 0.000364058684,22.5040883 0.00109039604,22.4338624 L0.00109039605,-1.06883794e-13 L19.9822761,-9.2686709e-14 L39.9634618,-1.06883794e-13 L39.9634618,49.2858343 Z" id="Combined-Shape"></path>
                        <circle id="Oval-3" cx="19.9811857" cy="82.5889009" r="5.32831619"></circle>
                        <rect id="Rectangle-8" x="13.3207905" y="10.6566324" width="13.3207905" height="13.3207905"></rect>
                        <rect id="Rectangle-8-Copy" x="13.3207905" y="31.9698971" width="13.3207905" height="13.3207905"></rect>
                        <rect id="Rectangle-8-Copy-2" x="13.3207905" y="53.2831619" width="13.3207905" height="13.3207905"></rect>
                    </g>
                    <g id="Group-12" transform="translate(2.105718, -0.000000)" stroke="#5E7BFF" fill="#FFFFFF">
                        <path d="M39.9623714,49.2858343 L39.9623714,81.2562767 L39.9623714,81.2562767 C39.9623714,92.2915808 31.0164898,101.237462 19.9811857,101.237462 C8.94588156,101.237462 -6.9702924e-14,92.2915808 -7.10542736e-14,81.2562767 L-2.74476622e-15,22.6447986 L0,22.6447986 C5.39041883e-17,22.5744009 0.000364058684,22.5040883 0.00109039604,22.4338624 L0.00109039605,-1.06883686e-13 L19.9822761,-9.2686709e-14 L39.9634618,-1.06883686e-13 L39.9634618,49.2858343 Z" id="Combined-Shape"></path>
                        <circle id="Oval-3" cx="19.9811857" cy="82.5889009" r="5.32831619"></circle>
                        <rect id="Rectangle-8" x="13.3207905" y="10.6566324" width="13.3207905" height="13.3207905"></rect>
                        <rect id="Rectangle-8-Copy" x="13.3207905" y="31.9698971" width="13.3207905" height="13.3207905"></rect>
                        <rect id="Rectangle-8-Copy-2" x="13.3207905" y="53.2831619" width="13.3207905" height="13.3207905"></rect>
                    </g>
                </g>
            </g>
            <path d="M38.321669,206.182509 L45.1271134,196.504178 L42.9879535,195 L36.1825091,204.678331 L26.5041781,197.872887 L25,200.012046 L34.678331,206.817491 L27.8728866,216.495822 L30.0120465,218 L36.8174909,208.321669 L46.4958219,215.127113 L48,212.987954 L38.321669,206.182509 Z" id="Combined-Shape-Copy" stroke="#F7E6FA" fill-opacity="0.8" fill="#F7E6FA"></path>
            <path d="M232,37.0930233 L232,37.0930233 L223.906977,50.0697674 L211,41.9069767 L211,41.9069767 L211,41.9069767 C215.469653,34.7786503 224.871674,32.6233699 232,37.0930233 Z" id="Fill-18-Copy-2" fill-opacity="0.8" fill="#CCD4FC" transform="translate(221.500000, 39.534884) rotate(58.000000) translate(-221.500000, -39.534884) "></path>
            <circle id="Oval-6-Copy" fill-opacity="0.8" fill="#F7E6FA" cx="45" cy="22" r="8"></circle>
            <polygon id="Fill-18-Copy-2" fill-opacity="0.8" fill="#F7E6FA" points="168.395349 205 177 210.395349 171.604651 219.046512 163 213.604651"></polygon>
            <polyline id="Stroke-1-Copy" stroke="#CCD4FC" stroke-width="3" points="189 190.806888 194.849938 190 195.858549 195.698647 201.658057 194.841328 202.666667 200.590406 208.516605 199.783518 209.525215 205.482165 215.324723 204.624846 216.333333 210.373924 222.132841 209.466175 223.141451 215.215252 228.99139 214.408364 230 220.107011"></polyline>
            <path d="M35.9749636,155.786118 L18.2250364,140.313882" id="Stroke-16-Copy" stroke="#CCD4FC" stroke-width="3"></path>
            <path d="M172,43.5475113 C167.290534,45.2248555 161.871422,44.2571569 158.06514,40.5799023 C153.484701,36.1284889 152.775055,29.2255723 155.936204,24" id="Stroke-6-Copy" stroke="#CCD4FC" stroke-width="2" stroke-linecap="round" stroke-linejoin="round" stroke-dasharray="1,4" transform="translate(163.000000, 34.171614) rotate(-147.000000) translate(-163.000000, -34.171614) "></path>
        </g>
    </g>
</svg>