<?xml version="1.0" encoding="UTF-8"?>
<svg width="1170px" height="325px" viewBox="0 0 1170 325" version="1.1" xmlns="http://www.w3.org/2000/svg" xmlns:xlink="http://www.w3.org/1999/xlink">
    <!-- Generator: Sketch 46.2 (44496) - http://www.bohemiancoding.com/sketch -->
    <title>Page 1</title>
    <desc>Created with Sketch.</desc>
    <defs>
        <polygon id="path-1" points="0 324.756654 1169.44753 324.756654 1169.44753 0.0705209125 0 0.0705209125"></polygon>
        <polygon id="path-3" points="0 324.756654 1169.44753 324.756654 1169.44753 0.0705209125 0 0.0705209125"></polygon>
    </defs>
    <g id="Page-1" stroke="none" stroke-width="1" fill="none" fill-rule="evenodd">
        <g id="LandingPageWebinar-02" transform="translate(-135.000000, -576.000000)">
            <g id="Page-1" transform="translate(135.000000, 576.000000)">
                <polygon id="Fill-1" fill="#668BF7" points="242.706863 323.06446 377.949286 323.06446 377.949286 296.746555 242.706863 296.746555"></polygon>
                <polygon id="Stroke-2" stroke="#4643D6" stroke-width="3" stroke-linecap="round" stroke-linejoin="round" points="242.706863 323.06446 377.949286 323.06446 377.949286 296.746555 242.706863 296.746555"></polygon>
                <path d="M263.227901,323.064087 L263.227901,296.747425 L263.227901,323.064087 Z" id="Fill-4" fill="#668BF7"></path>
                <path d="M263.22741,296.746679 L263.22741,323.064584" id="Stroke-5" stroke="#4643D6" stroke-width="3" stroke-linecap="round" stroke-linejoin="round"></path>
                <path d="M357.427757,323.064087 L357.427757,296.747425 L357.427757,323.064087 Z" id="Fill-7" fill="#668BF7"></path>
                <path d="M357.427879,296.746679 L357.427879,323.064584" id="Stroke-8" stroke="#4643D6" stroke-width="3" stroke-linecap="round" stroke-linejoin="round"></path>
                <polygon id="Fill-10" fill="#A2A0E0" points="215.241941 296.817426 350.484365 296.817426 350.484365 270.499521 215.241941 270.499521"></polygon>
                <polygon id="Stroke-11" stroke="#4643D6" stroke-width="3" stroke-linecap="round" stroke-linejoin="round" points="215.241941 296.817426 350.484365 296.817426 350.484365 270.499521 215.241941 270.499521"></polygon>
                <path d="M235.762612,296.817675 L235.762612,270.49977 L235.762612,296.817675 Z" id="Fill-12" fill="#668BF7"></path>
                <path d="M235.762489,270.499645 L235.762489,296.81755" id="Stroke-13" stroke="#4643D6" stroke-width="3" stroke-linecap="round" stroke-linejoin="round"></path>
                <path d="M329.962467,296.817675 L329.962467,270.49977 L329.962467,296.817675 Z" id="Fill-14" fill="#668BF7"></path>
                <path d="M329.962958,270.499645 L329.962958,296.81755" id="Stroke-15" stroke="#4643D6" stroke-width="3" stroke-linecap="round" stroke-linejoin="round"></path>
                <polygon id="Fill-16" fill="#A2A0E0" points="69.990063 323.06446 205.232487 323.06446 205.232487 296.746555 69.990063 296.746555"></polygon>
                <polygon id="Stroke-17" stroke="#4643D6" stroke-width="3" stroke-linecap="round" stroke-linejoin="round" points="69.990063 323.06446 205.232487 323.06446 205.232487 296.746555 69.990063 296.746555"></polygon>
                <polygon id="Fill-19" fill="#F3D7F9" points="69.990063 315.335821 205.232487 315.335821 205.232487 304.476437 69.990063 304.476437"></polygon>
                <polygon id="Stroke-20" stroke="#4643D6" stroke-width="3" stroke-linecap="round" stroke-linejoin="round" points="69.990063 315.335821 205.232487 315.335821 205.232487 304.476437 69.990063 304.476437"></polygon>
                <path d="M1167.60647,323.06446 L1.84204407,323.06446" id="Stroke-21" stroke="#4643D6" stroke-width="3" stroke-linecap="round" stroke-linejoin="round"></path>
                <polygon id="Fill-23" fill="#FCEEFF" points="196.978155 209.767788 188.052762 212.380058 211.969624 296.180335 220.895018 293.568065"></polygon>
                <polygon id="Stroke-24" stroke="#4643D6" stroke-width="3" points="196.978155 209.767788 188.052762 212.380058 211.969624 296.180335 220.895018 293.568065"></polygon>
                <polygon id="Fill-25" fill="#FCEEFF" points="214.158126 204.738702 205.232732 207.350972 229.149595 291.151249 238.074988 288.538979"></polygon>
                <polygon id="Stroke-26" stroke="#4643D6" stroke-width="3" points="214.158126 204.738702 205.232732 207.350972 229.149595 291.151249 238.074988 288.538979"></polygon>
                <polygon id="Fill-27" fill="#FCEEFF" points="265.865005 153.380679 260.908772 145.422021 188.052025 191.950515 193.008258 199.910416"></polygon>
                <polygon id="Stroke-28" stroke="#4643D6" stroke-width="3" points="265.865005 153.380679 260.908772 145.422021 188.052025 191.950515 193.008258 199.910416"></polygon>
                <polygon id="Fill-29" fill="#FCEEFF" points="275.404004 168.700194 270.447771 160.741536 197.592252 207.27003 202.547257 215.229931"></polygon>
                <polygon id="Stroke-30" stroke="#4643D6" stroke-width="3" points="275.404004 168.700194 270.447771 160.741536 197.592252 207.27003 202.547257 215.229931"></polygon>
                <g id="Group-74" transform="translate(0.000000, 0.172825)">
                    <path d="M227.96695,283.485773 C243.866918,283.485773 256.755334,296.538419 256.755334,312.640993 L256.755334,322.891138 L199.178566,322.891138 L199.178566,312.640993 C199.178566,296.538419 212.066981,283.485773 227.96695,283.485773 Z" id="Fill-31" fill="#C96DD8"></path>
                    <path d="M227.96695,283.485773 L227.96695,283.485773 C212.066981,283.485773 199.178566,296.538419 199.178566,312.640993 L199.178566,322.891138 L256.755334,322.891138 L256.755334,312.640993 C256.755334,296.538419 243.866918,283.485773 227.96695,283.485773 Z" id="Stroke-33" stroke="#4643D6" stroke-width="3"></path>
                    <path d="M252.279746,309.732807 L203.654153,309.732807 C197.865538,309.732807 193.173261,314.484875 193.173261,320.347252 L193.173261,322.891138 L262.760638,322.891138 L262.760638,320.347252 C262.760638,314.484875 258.068361,309.732807 252.279746,309.732807" id="Fill-35" fill="#C96DD8"></path>
                    <path d="M252.279746,309.732807 L203.654153,309.732807 C197.865538,309.732807 193.173261,314.484875 193.173261,320.347252 L193.173261,322.891138 L262.760638,322.891138 L262.760638,320.347252 C262.760638,314.484875 258.068361,309.732807 252.279746,309.732807 Z" id="Stroke-37" stroke="#4643D6" stroke-width="3"></path>
                    <path d="M180.423944,204.565877 C180.423944,194.075767 188.820198,185.572523 199.17832,185.572523 C209.536442,185.572523 217.932696,194.075767 217.932696,204.565877 C217.932696,215.055987 209.536442,223.55923 199.17832,223.55923 C188.820198,223.55923 180.423944,215.055987 180.423944,204.565877" id="Fill-39" fill="#A2A0E0"></path>
                    <path d="M180.423944,204.565877 C180.423944,194.075767 188.820198,185.572523 199.17832,185.572523 C209.536442,185.572523 217.932696,194.075767 217.932696,204.565877 C217.932696,215.055987 209.536442,223.55923 199.17832,223.55923 C188.820198,223.55923 180.423944,215.055987 180.423944,204.565877 Z" id="Stroke-41" stroke="#4643D6" stroke-width="3"></path>
                    <path d="M190.858061,204.565877 C190.858061,199.912033 194.582909,196.139721 199.178197,196.139721 C203.773486,196.139721 207.498334,199.912033 207.498334,204.565877 C207.498334,209.219721 203.773486,212.992033 199.178197,212.992033 C194.582909,212.992033 190.858061,209.219721 190.858061,204.565877" id="Fill-43" fill="#668BF7"></path>
                    <path d="M190.858061,204.565877 C190.858061,199.912033 194.582909,196.139721 199.178197,196.139721 C203.773486,196.139721 207.498334,199.912033 207.498334,204.565877 C207.498334,209.219721 203.773486,212.992033 199.178197,212.992033 C194.582909,212.992033 190.858061,209.219721 190.858061,204.565877 Z" id="Stroke-45" stroke="#4643D6" stroke-width="3"></path>
                    <path d="M326.217239,149.029962 L277.769663,177.599567 L255.807302,139.399004 C249.908194,129.140156 253.338393,115.981825 263.468163,110.008791 L275.233231,103.070921 C285.363,97.0978863 298.35577,100.570552 304.253651,110.8294 L326.217239,149.029962 Z" id="Fill-47" fill="#C96DD8"></path>
                    <path d="M326.217239,149.029962 L277.769663,177.599567 L255.807302,139.399004 C249.908194,129.140156 253.338393,115.981825 263.468163,110.008791 L275.233231,103.070921 C285.363,97.0978863 298.35577,100.570552 304.253651,110.8294 L326.217239,149.029962 Z" id="Stroke-49" stroke="#4643D6" stroke-width="3"></path>
                    <path d="M348.061864,162.845402 L278.851391,203.658234 L274.037572,195.286786 C270.365515,188.898474 272.501717,180.706067 278.808422,176.987219 L325.178726,149.64231 C331.485431,145.923462 339.575987,148.085641 343.248044,154.47271 L348.061864,162.845402 Z" id="Fill-51" fill="#C96DD8"></path>
                    <path d="M348.061864,162.845402 L278.851391,203.658234 L274.037572,195.286786 C270.365515,188.898474 272.501717,180.706067 278.808422,176.987219 L325.178726,149.64231 C331.485431,145.923462 339.575987,148.085641 343.248044,154.47271 L348.061864,162.845402 Z" id="Stroke-53" stroke="#4643D6" stroke-width="3"></path>
                    <path d="M321.589417,197.396744 L321.589417,197.396744 C316.429385,200.439211 309.810844,198.66993 306.805429,193.444147 L304.113079,188.761706 L322.799931,177.74193 L325.492281,182.424371 C328.496468,187.650154 326.749448,194.354276 321.589417,197.396744" id="Fill-55" fill="#F3D7F9"></path>
                    <path d="M321.589417,197.396744 L321.589417,197.396744 C316.429385,200.439211 309.810844,198.66993 306.805429,193.444147 L304.113079,188.761706 L322.799931,177.74193 L325.492281,182.424371 C328.496468,187.650154 326.749448,194.354276 321.589417,197.396744 Z" id="Stroke-57" stroke="#4643D6" stroke-width="3"></path>
                    <path d="M753.595158,296.573854 L415.853112,296.573854 L415.853112,111.266809 C415.853112,102.487543 422.880478,95.37063 431.549282,95.37063 L737.898988,95.37063 C746.567792,95.37063 753.595158,102.487543 753.595158,111.266809 L753.595158,296.573854 Z" id="Fill-59" fill="#FCEEFF"></path>
                    <path d="M753.595158,296.573854 L415.853112,296.573854 L415.853112,111.266809 C415.853112,102.487543 422.880478,95.37063 431.549282,95.37063 L737.898988,95.37063 C746.567792,95.37063 753.595158,102.487543 753.595158,111.266809 L753.595158,296.573854 Z" id="Stroke-61" stroke="#4643D6" stroke-width="3"></path>
                    <mask id="mask-2" fill="white">
                        <use xlink:href="#path-1"></use>
                    </mask>
                    <g id="Clip-64"></g>
                    <polygon id="Fill-63" fill="#668BF7" mask="url(#mask-2)" points="432.618856 276.482502 736.829906 276.482502 736.829906 115.462977 432.618856 115.462977"></polygon>
                    <polygon id="Fill-65" fill="#668BF7" mask="url(#mask-2)" points="432.618856 276.482502 736.829906 276.482502 736.829906 115.462977 432.618856 115.462977"></polygon>
                    <polygon id="Stroke-66" stroke="#4643D6" stroke-width="3" mask="url(#mask-2)" points="432.618856 276.482502 736.829906 276.482502 736.829906 115.462977 432.618856 115.462977"></polygon>
                    <path d="M750.28331,322.891635 L419.163488,322.891635 C409.210508,322.891635 401.140823,314.719122 401.140823,304.639316 L401.140823,296.57373 L768.305975,296.57373 L768.305975,304.639316 C768.305975,314.719122 760.237517,322.891635 750.28331,322.891635" id="Fill-67" fill="#A2A0E0" mask="url(#mask-2)"></path>
                    <path d="M750.28331,322.891635 L419.163488,322.891635 C409.210508,322.891635 401.140823,314.719122 401.140823,304.639316 L401.140823,296.57373 L768.305975,296.57373 L768.305975,304.639316 C768.305975,314.719122 760.237517,322.891635 750.28331,322.891635 Z" id="Stroke-68" stroke="#4643D6" stroke-width="3" mask="url(#mask-2)"></path>
                    <polygon id="Fill-69" fill="#F3D7F9" mask="url(#mask-2)" points="536.383001 309.733304 633.064533 309.733304 633.064533 296.574973 536.383001 296.574973"></polygon>
                    <polygon id="Stroke-70" stroke="#4643D6" stroke-width="3" mask="url(#mask-2)" points="536.383001 309.733304 633.064533 309.733304 633.064533 296.574973 536.383001 296.574973"></polygon>
                    <path d="M580.110063,105.477541 C580.110063,102.897598 582.175058,100.805047 584.723767,100.805047 C587.271249,100.805047 589.337471,102.897598 589.337471,105.477541 C589.337471,108.057484 587.271249,110.150035 584.723767,110.150035 C582.175058,110.150035 580.110063,108.057484 580.110063,105.477541" id="Fill-71" fill="#4643D6" mask="url(#mask-2)"></path>
                    <polygon id="Fill-72" fill="#4643D6" mask="url(#mask-2)" points="459.681091 296.57373 499.359192 296.57373 499.359192 288.649886 459.681091 288.649886"></polygon>
                    <polygon id="Fill-73" fill="#4643D6" mask="url(#mask-2)" points="670.08957 296.57373 709.767671 296.57373 709.767671 288.649886 670.08957 288.649886"></polygon>
                </g>
                <text id="WELCOME" font-family="Montserrat-ExtraBold, Montserrat" font-size="21.9212" font-weight="600" fill="#F3D7F9">
                    <tspan x="511.749652" y="191.163924">WEL</tspan>
                    <tspan x="564.14132" y="191.163924" letter-spacing="-0.2411332">C</tspan>
                    <tspan x="578.784681" y="191.163924">OME</tspan>
                </text>
                <g id="Group-164" transform="translate(0.000000, 0.172825)">
                    <path d="M498.188455,174.014627 L510.310785,174.014627 L498.188455,174.014627 Z" id="Stroke-75" stroke="#F3D7F9" stroke-width="3" stroke-linecap="round" stroke-linejoin="round"></path>
                    <path d="M504.249375,167.876477 L504.249375,180.153275" id="Stroke-77" stroke="#F3D7F9" stroke-width="3" stroke-linecap="round" stroke-linejoin="round"></path>
                    <path d="M673.204986,236.085444 L685.326088,236.085444" id="Stroke-79" stroke="#F3D7F9" stroke-width="3" stroke-linecap="round" stroke-linejoin="round"></path>
                    <path d="M679.265783,229.947418 L679.265783,242.224216" id="Stroke-81" stroke="#F3D7F9" stroke-width="3" stroke-linecap="round" stroke-linejoin="round"></path>
                    <polygon id="Fill-83" fill="#D8D7FF" points="435.13319 126.538703 734.314344 126.538703 734.314344 118.010593 435.13319 118.010593"></polygon>
                    <polygon id="Fill-85" fill="#F3D7F9" points="816.17739 91.2840004 880.771703 65.5318179 836.514274 97.2271943"></polygon>
                    <polygon id="Stroke-87" stroke="#4643D6" stroke-width="3" stroke-linecap="round" stroke-linejoin="round" points="816.17739 91.2840004 880.771703 65.5318179 836.514274 97.2271943"></polygon>
                    <polygon id="Fill-89" fill="#F3D7F9" points="857.377964 101.884147 884.916548 104.757519 880.771826 65.5324395"></polygon>
                    <polygon id="Stroke-91" stroke="#4643D6" stroke-width="3" stroke-linecap="round" stroke-linejoin="round" points="857.377964 101.884147 884.916548 104.757519 880.771826 65.5324395"></polygon>
                    <polygon id="Fill-93" fill="#F3D7F9" points="880.771703 65.5321909 842.37164 107.6294 836.515502 97.226324"></polygon>
                    <polygon id="Stroke-95" stroke="#4643D6" stroke-width="3" stroke-linecap="round" stroke-linejoin="round" points="880.771703 65.5321909 842.37164 107.6294 836.515502 97.226324"></polygon>
                    <g id="Group-100" transform="translate(842.203568, 100.954373)">
                        <path d="M0.167581322,6.67540038 L15.1750105,0.929898479" id="Fill-97" fill="#F3D7F9"></path>
                        <path d="M0.167581322,6.67540038 L15.1750105,0.929898479" id="Stroke-99" stroke="#4643D6" stroke-width="3" stroke-linecap="round" stroke-linejoin="round"></path>
                    </g>
                    <polygon id="Fill-101" fill="#F3D7F9" points="332.915213 27.6869764 268.3209 1.93479392 312.577102 33.6301703"></polygon>
                    <polygon id="Stroke-103" stroke="#4643D6" stroke-width="3" stroke-linecap="round" stroke-linejoin="round" points="332.915213 27.6869764 268.3209 1.93479392 312.577102 33.6301703"></polygon>
                    <polygon id="Fill-105" fill="#F3D7F9" points="291.714516 38.2871228 264.175933 41.1604954 268.320655 1.93541559"></polygon>
                    <polygon id="Stroke-107" stroke="#4643D6" stroke-width="3" stroke-linecap="round" stroke-linejoin="round" points="291.714516 38.2871228 264.175933 41.1604954 268.320655 1.93541559"></polygon>
                    <polygon id="Fill-109" fill="#F3D7F9" points="268.321023 1.93516692 306.721086 44.032376 312.577225 33.6293"></polygon>
                    <polygon id="Stroke-111" stroke="#4643D6" stroke-width="3" stroke-linecap="round" stroke-linejoin="round" points="268.321023 1.93516692 306.721086 44.032376 312.577225 33.6293"></polygon>
                    <g id="Group-116" transform="translate(290.965373, 37.543726)">
                        <path d="M15.7559591,6.48902281 L0.748529906,0.743520913" id="Fill-113" fill="#F3D7F9"></path>
                        <path d="M15.7559591,6.48902281 L0.748529906,0.743520913" id="Stroke-115" stroke="#4643D6" stroke-width="3" stroke-linecap="round" stroke-linejoin="round"></path>
                    </g>
                    <path d="M116.342443,220.884544 L119.296294,239.966176 C120.417186,247.203693 126.651456,252.485427 133.883849,252.322548 L140.277721,252.179563 L142.013692,245.944183 C143.976787,238.894411 140.48643,231.460446 133.847018,228.552259 L116.342443,220.884544 Z" id="Fill-117" fill="#A2A0E0"></path>
                    <path d="M116.342443,220.884544 L119.296294,239.966176 C120.417186,247.203693 126.651456,252.485427 133.883849,252.322548 L140.277721,252.179563 L142.013692,245.944183 C143.976787,238.894411 140.48643,231.460446 133.847018,228.552259 L116.342443,220.884544 Z" id="Stroke-119" stroke="#4643D6" stroke-width="3" stroke-linecap="round" stroke-linejoin="round"></path>
                    <path d="M140.277844,252.17919 L131.038158,240.098841" id="Stroke-121" stroke="#4643D6" stroke-width="3" stroke-linecap="round" stroke-linejoin="round"></path>
                    <path d="M119.219808,264.333146 C119.219808,250.590443 130.220018,249.810865 143.789808,249.810865 C157.359598,249.810865 168.359808,250.590443 168.359808,264.333146 C168.359808,275.825394 160.667027,292.289781 150.210689,295.149477 C148.16411,295.708983 146.011949,293.17753 143.789808,293.17753 C141.656062,293.17753 139.586156,295.732606 137.612012,295.215375 C127.032903,292.440226 119.219808,275.914914 119.219808,264.333146" id="Fill-123" fill="#C96DD8"></path>
                    <path d="M119.219808,264.333146 C119.219808,250.590443 130.220018,249.810865 143.789808,249.810865 C157.359598,249.810865 168.359808,250.590443 168.359808,264.333146 C168.359808,275.825394 160.667027,292.289781 150.210689,295.149477 C148.16411,295.708983 146.011949,293.17753 143.789808,293.17753 C141.656062,293.17753 139.586156,295.732606 137.612012,295.215375 C127.032903,292.440226 119.219808,275.914914 119.219808,264.333146 Z" id="Stroke-125" stroke="#4643D6" stroke-width="3" stroke-linecap="round" stroke-linejoin="round"></path>
                    <path d="M143.789808,249.810368 C143.789808,249.810368 142.672599,238.774429 149.658224,231.69979" id="Fill-127" fill="#C96DD8"></path>
                    <path d="M141.955744,249.979338 C141.955744,249.979338 141.942239,249.897278 141.917685,249.743103 C141.895587,249.581468 141.864894,249.343989 141.82438,249.040612 C141.754401,248.457483 141.678283,247.635631 141.64268,246.644684 C141.600938,245.652494 141.618126,244.493696 141.700382,243.24289 C141.745807,242.61873 141.818241,241.970947 141.89927,241.311973 C142.014674,240.65673 142.084653,239.979106 142.25162,239.313916 C142.400172,238.644996 142.543813,237.972346 142.757433,237.320833 C142.940361,236.661859 143.155209,236.017806 143.408115,235.40608 C143.632785,234.783163 143.890602,234.192574 144.175429,233.645502 C144.443068,233.09097 144.69843,232.563791 144.996762,232.107483 C145.285272,231.642471 145.548,231.216004 145.782491,230.83927 C146.051358,230.48243 146.287077,230.17035 146.479826,229.914221 C146.873918,229.401962 147.099815,229.108532 147.099815,229.108532 C148.336111,227.503373 150.62332,227.21616 152.209511,228.466966 C153.795702,229.719015 154.079301,232.036612 152.843005,233.641772 C152.711641,233.813354 152.568,233.968772 152.414537,234.10927 L152.21565,234.289555 C152.21565,234.289555 152.035177,234.452433 151.720886,234.73716 C151.560057,234.880144 151.364852,235.05297 151.140183,235.251905 C150.936384,235.475707 150.706804,235.72935 150.456353,236.005373 C150.188714,236.270205 149.949312,236.605909 149.687811,236.959019 C149.412806,237.302183 149.147622,237.688863 148.90331,238.115331 C148.63076,238.523148 148.382764,238.971996 148.153184,239.445711 C147.896594,239.905749 147.692795,240.408061 147.477948,240.910373 C147.245912,241.403981 147.09736,241.93862 146.902155,242.448392 C146.740099,242.970597 146.581725,243.489072 146.447906,244.000087 C146.191316,245.022118 145.993656,246.001875 145.875796,246.848593 C145.751799,247.695312 145.687958,248.407749 145.658493,248.896384 C145.644988,249.12889 145.635167,249.312905 145.627801,249.43724 C145.625345,249.570278 145.624118,249.641148 145.624118,249.641148 L145.621662,249.716992 C145.599563,250.74897 144.754905,251.567091 143.735912,251.544711 C142.833551,251.523574 142.09693,250.849681 141.955744,249.979338" id="Fill-129" fill="#4643D6"></path>
                    <path d="M996.877322,191.476179 C987.935969,215.246468 984.861803,275.947863 987.79601,286.134597 C990.730218,296.322574 996.877322,306.085327 996.877322,306.085327 C996.877322,306.085327 1003.02443,296.322574 1005.95863,286.134597 C1008.89284,275.947863 1005.81868,215.246468 996.877322,191.476179" id="Fill-131" fill="#A2A0E0"></path>
                    <path d="M996.877322,191.476179 C987.935969,215.246468 984.861803,275.947863 987.79601,286.134597 C990.730218,296.322574 996.877322,306.085327 996.877322,306.085327 C996.877322,306.085327 1003.02443,296.322574 1005.95863,286.134597 C1008.89284,275.947863 1005.81868,215.246468 996.877322,191.476179 Z" id="Stroke-133" stroke="#4643D6" stroke-width="3" stroke-linecap="round" stroke-linejoin="round"></path>
                    <path d="M987.100395,281.682672 L1006.76941,281.682672" id="Stroke-135" stroke="#4643D6" stroke-width="3" stroke-linecap="round" stroke-linejoin="round"></path>
                    <path d="M986.726437,272.269424 L1007.03263,272.269424" id="Stroke-137" stroke="#4643D6" stroke-width="3" stroke-linecap="round" stroke-linejoin="round"></path>
                    <path d="M1005.32993,292.613797 C1005.3287,297.340999 1001.54492,301.172991 996.877199,301.172991 C992.209476,301.172991 988.425699,297.340999 988.424471,292.613797 C979.355437,292.633691 972.008868,300.08382 972.008868,309.27339 L972.008868,322.891759 L1021.74676,322.891759 L1021.74676,309.27339 C1021.74676,300.08382 1014.39896,292.633691 1005.32993,292.613797" id="Fill-139" fill="#FCEEFF"></path>
                    <path d="M1005.32993,292.613797 C1005.3287,297.340999 1001.54492,301.172991 996.877199,301.172991 C992.209476,301.172991 988.425699,297.340999 988.424471,292.613797 C979.355437,292.633691 972.008868,300.08382 972.008868,309.27339 L972.008868,322.891759 L1021.74676,322.891759 L1021.74676,309.27339 C1021.74676,300.08382 1014.39896,292.633691 1005.32993,292.613797 Z" id="Stroke-141" stroke="#4643D6" stroke-width="3" stroke-linecap="round" stroke-linejoin="round"></path>
                    <path d="M1083.51748,281.682548 L1072.18211,281.682548 L1072.18211,268.486917 L1051.64511,268.486917 L1051.64511,281.682548 L1040.30974,281.682548 C1036.77027,281.682548 1033.90113,284.588248 1033.90113,288.172814 L1033.90113,316.400498 C1033.90113,319.985065 1036.77027,322.892008 1040.30974,322.892008 L1083.51748,322.892008 C1087.05694,322.892008 1089.92608,319.985065 1089.92608,316.400498 L1089.92608,288.172814 C1089.92608,284.588248 1087.05694,281.682548 1083.51748,281.682548" id="Fill-143" fill="#A2A0E0"></path>
                    <path d="M1083.51748,281.682548 L1072.18211,281.682548 L1072.18211,268.486917 L1051.64511,268.486917 L1051.64511,281.682548 L1040.30974,281.682548 C1036.77027,281.682548 1033.90113,284.588248 1033.90113,288.172814 L1033.90113,316.400498 C1033.90113,319.985065 1036.77027,322.892008 1040.30974,322.892008 L1083.51748,322.892008 C1087.05694,322.892008 1089.92608,319.985065 1089.92608,316.400498 L1089.92608,288.172814 C1089.92608,284.588248 1087.05694,281.682548 1083.51748,281.682548 Z" id="Stroke-145" stroke="#4643D6" stroke-width="3" stroke-linecap="round" stroke-linejoin="round"></path>
                    <mask id="mask-4" fill="white">
                        <use xlink:href="#path-3"></use>
                    </mask>
                    <g id="Clip-148"></g>
                    <polygon id="Fill-147" fill="#FCEEFF" mask="url(#mask-4)" points="1033.90187 307.752654 1089.92682 307.752654 1089.92682 294.238726 1033.90187 294.238726"></polygon>
                    <polygon id="Stroke-149" stroke="#4643D6" stroke-width="3" stroke-linecap="round" stroke-linejoin="round" mask="url(#mask-4)" points="1033.90187 307.752654 1089.92682 307.752654 1089.92682 294.238726 1033.90187 294.238726"></polygon>
                    <polygon id="Fill-150" fill="#4643D6" mask="url(#mask-4)" points="1044.37908 268.487787 1079.44716 268.487787 1079.44716 255.292156 1044.37908 255.292156"></polygon>
                    <polygon id="Stroke-151" stroke="#4643D6" stroke-width="3" stroke-linecap="round" stroke-linejoin="round" mask="url(#mask-4)" points="1044.37908 268.487787 1079.44716 268.487787 1079.44716 255.292156 1044.37908 255.292156"></polygon>
                    <path d="M1044.37981,290.843397 L1044.37981,312.491294" id="Stroke-152" stroke="#4643D6" stroke-width="3" stroke-linecap="round" stroke-linejoin="round" mask="url(#mask-4)"></path>
                    <polygon id="Fill-153" fill="#F3D7F9" mask="url(#mask-4)" points="807.706369 322.891635 930.094753 322.891635 930.094753 248.780753 807.706369 248.780753"></polygon>
                    <polygon id="Stroke-154" stroke="#4643D6" stroke-width="3" stroke-linecap="round" stroke-linejoin="round" mask="url(#mask-4)" points="807.706369 322.891635 930.094753 322.891635 930.094753 248.780753 807.706369 248.780753"></polygon>
                    <path d="M820.280248,244.999613 L820.280248,252.516883" id="Stroke-155" stroke="#4643D6" stroke-width="3" stroke-linecap="round" stroke-linejoin="round" mask="url(#mask-4)"></path>
                    <path d="M832.435234,244.999613 L832.435234,252.516883" id="Stroke-156" stroke="#4643D6" stroke-width="3" stroke-linecap="round" stroke-linejoin="round" mask="url(#mask-4)"></path>
                    <path d="M844.59022,244.999613 L844.59022,252.516883" id="Stroke-157" stroke="#4643D6" stroke-width="3" stroke-linecap="round" stroke-linejoin="round" mask="url(#mask-4)"></path>
                    <path d="M856.745329,244.999613 L856.745329,252.516883" id="Stroke-158" stroke="#4643D6" stroke-width="3" stroke-linecap="round" stroke-linejoin="round" mask="url(#mask-4)"></path>
                    <path d="M868.900316,244.999613 L868.900316,252.516883" id="Stroke-159" stroke="#4643D6" stroke-width="3" stroke-linecap="round" stroke-linejoin="round" mask="url(#mask-4)"></path>
                    <path d="M881.055302,244.999613 L881.055302,252.516883" id="Stroke-160" stroke="#4643D6" stroke-width="3" stroke-linecap="round" stroke-linejoin="round" mask="url(#mask-4)"></path>
                    <path d="M893.210411,244.999613 L893.210411,252.516883" id="Stroke-161" stroke="#4643D6" stroke-width="3" stroke-linecap="round" stroke-linejoin="round" mask="url(#mask-4)"></path>
                    <path d="M905.365398,244.999613 L905.365398,252.516883" id="Stroke-162" stroke="#4643D6" stroke-width="3" stroke-linecap="round" stroke-linejoin="round" mask="url(#mask-4)"></path>
                    <path d="M917.520384,244.999613 L917.520384,252.516883" id="Stroke-163" stroke="#4643D6" stroke-width="3" stroke-linecap="round" stroke-linejoin="round" mask="url(#mask-4)"></path>
                </g>
                <text id="AUG-8" font-family="Montserrat-ExtraBold, Montserrat" font-size="18.0022" font-weight="600" letter-spacing="-0.360044" fill="#C96DD8">
                    <tspan x="834.822378" y="285.06884">A</tspan>
                    <tspan x="848.252019" y="285.06884">UG 8</tspan>
                </text>
                <g id="Group-169" transform="translate(929.370409, 256.545449)">
                    <polygon id="Fill-165" fill="#C96DD8" points="0.724098636 0.859773764 18.0064596 66.5196331 0.724098636 66.5196331"></polygon>
                    <polygon id="Stroke-167" stroke="#4643D6" stroke-width="3" stroke-linecap="round" stroke-linejoin="round" points="0.724098636 0.859773764 18.0064596 66.5196331 0.724098636 66.5196331"></polygon>
                </g>
            </g>
        </g>
    </g>
</svg>