<?xml version="1.0" encoding="utf-8"?>
<!-- Generator: Adobe Illustrator 19.2.0, SVG Export Plug-In . SVG Version: 6.00 Build 0)  -->
<svg version="1.1" id="Layer_1" xmlns="http://www.w3.org/2000/svg" xmlns:xlink="http://www.w3.org/1999/xlink" x="0px" y="0px"
	 viewBox="0 0 854 214" style="enable-background:new 0 0 854 214;" xml:space="preserve">
<style type="text/css">
	.st0{clip-path:url(#SVGID_2_);}
	.st1{clip-path:url(#SVGID_4_);fill:#F7FAFD;}
	.st2{fill:none;stroke:#5E7BFF;stroke-width:3;stroke-linecap:round;stroke-linejoin:round;stroke-miterlimit:10;}
	.st3{clip-path:url(#SVGID_6_);}
	.st4{clip-path:url(#SVGID_8_);fill:#F7FAFD;}
	.st5{clip-path:url(#SVGID_10_);}
	.st6{clip-path:url(#SVGID_12_);fill:#F7FAFD;}
	.st7{clip-path:url(#SVGID_14_);}
	.st8{clip-path:url(#SVGID_16_);fill:#F7FAFD;}
	.st9{clip-path:url(#SVGID_18_);}
	.st10{clip-path:url(#SVGID_20_);fill:#F7FAFD;}
	.st11{clip-path:url(#SVGID_22_);}
	.st12{clip-path:url(#SVGID_24_);fill:#F7FAFD;}
	.st13{clip-path:url(#SVGID_26_);}
	.st14{clip-path:url(#SVGID_28_);fill:#F7E6FA;}
	.st15{fill:none;stroke:#C96DD8;stroke-width:3;stroke-linecap:round;stroke-linejoin:round;stroke-miterlimit:10;}
	.st16{clip-path:url(#SVGID_30_);}
	.st17{clip-path:url(#SVGID_32_);fill:#F7E6FA;}
	.st18{clip-path:url(#SVGID_34_);}
	.st19{clip-path:url(#SVGID_36_);fill:#F7FAFD;}
	.st20{clip-path:url(#SVGID_38_);}
	.st21{clip-path:url(#SVGID_40_);fill:#F7E6FA;}
	.st22{clip-path:url(#SVGID_42_);}
	.st23{clip-path:url(#SVGID_44_);fill:#F7FAFD;}
	.st24{clip-path:url(#SVGID_46_);}
	.st25{clip-path:url(#SVGID_48_);fill:#F7FAFD;}
	.st26{clip-path:url(#SVGID_50_);}
	.st27{clip-path:url(#SVGID_52_);fill:#F7E6FA;}
	.st28{clip-path:url(#SVGID_54_);}
	.st29{clip-path:url(#SVGID_56_);fill:#5E7BFF;}
	.st30{clip-path:url(#SVGID_58_);}
	.st31{clip-path:url(#SVGID_60_);fill:#F7FAFD;}
	.st32{clip-path:url(#SVGID_62_);}
	.st33{clip-path:url(#SVGID_64_);fill:#F7FAFD;}
	.st34{clip-path:url(#SVGID_66_);}
	.st35{clip-path:url(#SVGID_68_);fill:#F7E6FA;}
	.st36{clip-path:url(#SVGID_70_);}
	.st37{clip-path:url(#SVGID_72_);fill:#F7E6FA;}
	.st38{clip-path:url(#SVGID_74_);}
	.st39{clip-path:url(#SVGID_76_);fill:#F7FAFD;}
	.st40{clip-path:url(#SVGID_78_);}
	.st41{clip-path:url(#SVGID_80_);fill:#F7FAFD;}
	.st42{fill:#D587E0;}
	.st43{clip-path:url(#SVGID_82_);}
	.st44{clip-path:url(#SVGID_84_);fill:#F7FAFD;}
	.st45{clip-path:url(#SVGID_86_);}
	.st46{clip-path:url(#SVGID_88_);fill:#F7FAFD;}
	.st47{clip-path:url(#SVGID_90_);}
	.st48{clip-path:url(#SVGID_92_);fill:#F7FAFD;}
</style>
<title>Group 9 Copy</title>
<desc>Created with Sketch.</desc>
<g>
	<g>
		<defs>
			<path id="SVGID_1_" d="M309.3,50.2h232.1c3.4,0,6.2,2.8,6.2,6.2v140.9H303.1V56.4C303.1,53,305.9,50.2,309.3,50.2z"/>
		</defs>
		<clipPath id="SVGID_2_">
			<use xlink:href="#SVGID_1_"  style="overflow:visible;"/>
		</clipPath>
		<g class="st0">
			<defs>
				<rect id="SVGID_3_" x="-86.2" y="-442.8" width="1118.1" height="795.1"/>
			</defs>
			<clipPath id="SVGID_4_">
				<use xlink:href="#SVGID_3_"  style="overflow:visible;"/>
			</clipPath>
			<rect x="299.3" y="46.4" class="st1" width="252.3" height="154.9"/>
		</g>
	</g>
	<path class="st2" d="M309.3,50.2h232.1c3.4,0,6.2,2.8,6.2,6.2v140.9H303.1V56.4C303.1,53,305.9,50.2,309.3,50.2z"/>
	<g>
		<defs>
			<path id="SVGID_5_" d="M292.3,197.4h268.7c0.4,0,0.8,0.3,0.8,0.8c0,0.1,0,0.1,0,0.2l-2.5,8.6c-1,3.3-4,5.6-7.5,5.6H301.5
				c-3.5,0-6.5-2.3-7.5-5.6l-2.5-8.6c-0.1-0.4,0.1-0.8,0.5-1C292.2,197.4,292.3,197.4,292.3,197.4z"/>
		</defs>
		<clipPath id="SVGID_6_">
			<use xlink:href="#SVGID_5_"  style="overflow:visible;"/>
		</clipPath>
		<g class="st3">
			<defs>
				<rect id="SVGID_7_" x="-86.2" y="-442.8" width="1118.1" height="795.1"/>
			</defs>
			<clipPath id="SVGID_8_">
				<use xlink:href="#SVGID_7_"  style="overflow:visible;"/>
			</clipPath>
			<rect x="287.7" y="193.5" class="st4" width="278" height="23"/>
		</g>
	</g>
	<path class="st2" d="M292.3,197.4h268.7c0.4,0,0.8,0.3,0.8,0.8c0,0.1,0,0.1,0,0.2l-2.5,8.6c-1,3.3-4,5.6-7.5,5.6H301.5
		c-3.5,0-6.5-2.3-7.5-5.6l-2.5-8.6c-0.1-0.4,0.1-0.8,0.5-1C292.2,197.4,292.3,197.4,292.3,197.4z"/>
	<g>
		<defs>
			<path id="SVGID_9_" d="M400.4,197.4H453v2.8c0,2.8-2.3,5-5,5h-42.5c-2.8,0-5-2.3-5-5V197.4z"/>
		</defs>
		<clipPath id="SVGID_10_">
			<use xlink:href="#SVGID_9_"  style="overflow:visible;"/>
		</clipPath>
		<g class="st5">
			<defs>
				<rect id="SVGID_11_" x="-86.2" y="-442.8" width="1118.1" height="795.1"/>
			</defs>
			<clipPath id="SVGID_12_">
				<use xlink:href="#SVGID_11_"  style="overflow:visible;"/>
			</clipPath>
			<rect x="396.5" y="193.5" class="st6" width="60.3" height="15.7"/>
		</g>
	</g>
	<path class="st2" d="M400.4,197.4H453v2.8c0,2.8-2.3,5-5,5h-42.5c-2.8,0-5-2.3-5-5V197.4z"/>
	<g>
		<defs>
			<rect id="SVGID_13_" x="315" y="61.7" width="220.8" height="135.7"/>
		</defs>
		<clipPath id="SVGID_14_">
			<use xlink:href="#SVGID_13_"  style="overflow:visible;"/>
		</clipPath>
		<g class="st7">
			<defs>
				<rect id="SVGID_15_" x="-86.2" y="-442.8" width="1118.1" height="795.1"/>
			</defs>
			<clipPath id="SVGID_16_">
				<use xlink:href="#SVGID_15_"  style="overflow:visible;"/>
			</clipPath>
			<rect x="311.1" y="57.8" class="st8" width="228.6" height="143.5"/>
		</g>
	</g>
	<rect x="315" y="61.7" class="st2" width="220.8" height="135.7"/>
	<line class="st2" x1="777" y1="213" x2="77" y2="213"/>
	<g>
		<g>
			<defs>
				
					<rect id="SVGID_17_" x="699.2" y="72.2" transform="matrix(0.5 -0.866 0.866 0.5 257.3898 664.943)" width="10.8" height="74.8"/>
			</defs>
			<clipPath id="SVGID_18_">
				<use xlink:href="#SVGID_17_"  style="overflow:visible;"/>
			</clipPath>
			<g class="st9">
				<defs>
					<rect id="SVGID_19_" x="-81.1" y="-439" width="1110.2" height="789.5"/>
				</defs>
				<clipPath id="SVGID_20_">
					<use xlink:href="#SVGID_19_"  style="overflow:visible;"/>
				</clipPath>
				
					<rect x="695.3" y="68.3" transform="matrix(0.5 -0.866 0.866 0.5 257.3891 664.9424)" class="st10" width="18.5" height="82.5"/>
			</g>
		</g>
		<rect x="699.2" y="72.2" transform="matrix(0.5 -0.866 0.866 0.5 257.3892 664.9425)" class="st2" width="10.8" height="74.8"/>
		<g>
			<defs>
				
					<rect id="SVGID_21_" x="683.3" y="163.5" transform="matrix(0.4067 -0.9135 0.9135 0.4067 273.264 758.6513)" width="74.8" height="10.8"/>
			</defs>
			<clipPath id="SVGID_22_">
				<use xlink:href="#SVGID_21_"  style="overflow:visible;"/>
			</clipPath>
			<g class="st11">
				<defs>
					<rect id="SVGID_23_" x="-81.1" y="-439" width="1110.2" height="789.5"/>
				</defs>
				<clipPath id="SVGID_24_">
					<use xlink:href="#SVGID_23_"  style="overflow:visible;"/>
				</clipPath>
				
					<rect x="679.5" y="159.7" transform="matrix(0.4067 -0.9135 0.9135 0.4067 273.2635 758.6509)" class="st12" width="82.5" height="18.5"/>
			</g>
		</g>
		
			<rect x="683.3" y="163.5" transform="matrix(0.4067 -0.9135 0.9135 0.4067 273.2634 758.6509)" class="st2" width="74.8" height="10.8"/>
		<g>
			<defs>
				<circle id="SVGID_25_" cx="736.5" cy="130.4" r="9.6"/>
			</defs>
			<clipPath id="SVGID_26_">
				<use xlink:href="#SVGID_25_"  style="overflow:visible;"/>
			</clipPath>
			<g class="st13">
				<defs>
					<rect id="SVGID_27_" x="-81.1" y="-439" width="1110.2" height="789.5"/>
				</defs>
				<clipPath id="SVGID_28_">
					<use xlink:href="#SVGID_27_"  style="overflow:visible;"/>
				</clipPath>
				<rect x="723.1" y="116.9" class="st14" width="27" height="27"/>
			</g>
		</g>
		<circle class="st15" cx="736.5" cy="130.4" r="9.6"/>
		<g>
			<defs>
				<ellipse id="SVGID_29_" transform="matrix(0.5 -0.866 0.866 0.5 212.8852 615.3367)" cx="639.3" cy="123.3" rx="8.8" ry="8.8"/>
			</defs>
			<clipPath id="SVGID_30_">
				<use xlink:href="#SVGID_29_"  style="overflow:visible;"/>
			</clipPath>
			<g class="st16">
				<defs>
					<rect id="SVGID_31_" x="-81.1" y="-439" width="1110.2" height="789.5"/>
				</defs>
				<clipPath id="SVGID_32_">
					<use xlink:href="#SVGID_31_"  style="overflow:visible;"/>
				</clipPath>
				
					<rect x="626.7" y="110.6" transform="matrix(0.5 -0.866 0.866 0.5 212.884 615.3357)" class="st17" width="25.3" height="25.3"/>
			</g>
		</g>
		<ellipse transform="matrix(0.5 -0.866 0.866 0.5 212.8845 615.3361)" class="st15" cx="639.3" cy="123.3" rx="8.8" ry="8.8"/>
		<g>
			<defs>
				<path id="SVGID_33_" d="M661.8,93.1l4.8-8.4c1.1-1.8,0.4-4.2-1.4-5.3l-4.6-2.7c-1.8-1.1-4.2-0.4-5.3,1.4l-4.8,8.3
					c-2.3-0.8-4.6-1.5-6.9-1.9c-15.3-2.6-31.2,4.3-39.4,18.5c0,0,11,6.4,33,19.1c22,12.7,33,19.1,33,19.1
					C679.7,125,675.7,104.8,661.8,93.1z"/>
			</defs>
			<clipPath id="SVGID_34_">
				<use xlink:href="#SVGID_33_"  style="overflow:visible;"/>
			</clipPath>
			<g class="st18">
				<defs>
					<rect id="SVGID_35_" x="-82.6" y="-439.8" width="1110.2" height="789.5"/>
				</defs>
				<clipPath id="SVGID_36_">
					<use xlink:href="#SVGID_35_"  style="overflow:visible;"/>
				</clipPath>
				<rect x="620.6" y="58.1" transform="matrix(0.5 -0.866 0.866 0.5 238.3028 612.9739)" class="st19" width="58.8" height="84"/>
			</g>
		</g>
		<path class="st2" d="M661.8,93.1l4.8-8.4c1.1-1.8,0.4-4.2-1.4-5.3l-4.6-2.7c-1.8-1.1-4.2-0.4-5.3,1.4l-4.8,8.3
			c-2.3-0.8-4.6-1.5-6.9-1.9c-15.3-2.6-31.2,4.3-39.4,18.5c0,0,11,6.4,33,19.1c22,12.7,33,19.1,33,19.1
			C679.7,125,675.7,104.8,661.8,93.1z"/>
		<g>
			<defs>
				<path id="SVGID_37_" d="M707.6,210.2c13.9,0,20.8,0,20.8,0c0-11.1-9.3-20-20.8-20c-11.5,0-20.8,9-20.8,20
					C686.8,210.2,693.8,210.2,707.6,210.2z"/>
			</defs>
			<clipPath id="SVGID_38_">
				<use xlink:href="#SVGID_37_"  style="overflow:visible;"/>
			</clipPath>
			<g class="st20">
				<defs>
					<rect id="SVGID_39_" x="-81.1" y="-439" width="1110.2" height="789.5"/>
				</defs>
				<clipPath id="SVGID_40_">
					<use xlink:href="#SVGID_39_"  style="overflow:visible;"/>
				</clipPath>
				<rect x="683" y="186.3" class="st21" width="49.3" height="27.8"/>
			</g>
		</g>
		<path class="st15" d="M707.6,210.2c13.9,0,20.8,0,20.8,0c0-11.1-9.3-20-20.8-20s-20.8,9-20.8,20
			C686.8,210.2,693.8,210.2,707.6,210.2z"/>
		<line class="st2" x1="676.8" y1="93" x2="649" y2="77.6"/>
	</g>
	<g>
		<g>
			<g>
				<defs>
					<path id="SVGID_41_" d="M178,103.8l2.3,14.7c0.9,5.6,5.7,9.7,11.2,9.5l4.9-0.1l1.3-4.8c1.5-5.4-1.2-11.2-6.3-13.4L178,103.8z"
						/>
				</defs>
				<clipPath id="SVGID_42_">
					<use xlink:href="#SVGID_41_"  style="overflow:visible;"/>
				</clipPath>
				<g class="st22">
					<defs>
						<rect id="SVGID_43_" x="-82.6" y="-439" width="1110.2" height="789.5"/>
					</defs>
					<clipPath id="SVGID_44_">
						<use xlink:href="#SVGID_43_"  style="overflow:visible;"/>
					</clipPath>
					<rect x="174.1" y="99.9" class="st23" width="27.9" height="32"/>
				</g>
			</g>
			<path class="st2" d="M178,103.8l2.3,14.7c0.9,5.6,5.7,9.7,11.2,9.5l4.9-0.1l1.3-4.8c1.5-5.4-1.2-11.2-6.3-13.4L178,103.8z"/>
			<g>
				<defs>
					<line id="SVGID_45_" x1="196.4" y1="127.9" x2="189.3" y2="118.6"/>
				</defs>
				<clipPath id="SVGID_46_">
					<use xlink:href="#SVGID_45_"  style="overflow:visible;"/>
				</clipPath>
				<g class="st24">
					<defs>
						<rect id="SVGID_47_" x="-82.6" y="-439" width="1110.2" height="789.5"/>
					</defs>
					<clipPath id="SVGID_48_">
						<use xlink:href="#SVGID_47_"  style="overflow:visible;"/>
					</clipPath>
					<rect x="185.4" y="114.7" class="st25" width="14.8" height="17"/>
				</g>
			</g>
			<line class="st2" x1="196.4" y1="127.9" x2="189.3" y2="118.6"/>
			<g>
				<defs>
					<path id="SVGID_49_" d="M180.2,137.3c0-10.6,8.5-11.2,18.9-11.2c10.5,0,18.9,0.6,18.9,11.2c0,8.9-5.9,21.6-14,23.8
						c-1.6,0.4-3.2-1.5-5-1.5c-1.6,0-3.2,2-4.8,1.6C186.2,159,180.2,146.2,180.2,137.3"/>
				</defs>
				<clipPath id="SVGID_50_">
					<use xlink:href="#SVGID_49_"  style="overflow:visible;"/>
				</clipPath>
				<g class="st26">
					<defs>
						<rect id="SVGID_51_" x="-82.6" y="-439" width="1110.2" height="789.5"/>
					</defs>
					<clipPath id="SVGID_52_">
						<use xlink:href="#SVGID_51_"  style="overflow:visible;"/>
					</clipPath>
					<rect x="176.3" y="122.2" class="st27" width="45.6" height="42.8"/>
				</g>
			</g>
			<path class="st15" d="M180.2,137.3c0-10.6,8.5-11.2,18.9-11.2s18.9,0.6,18.9,11.2c0,8.9-5.9,21.6-14,23.8c-1.6,0.4-3.2-1.5-5-1.5
				c-1.6,0-3.2,2-4.8,1.6C186.2,159,180.2,146.2,180.2,137.3"/>
			<g>
				<defs>
					<path id="SVGID_53_" d="M197.7,125.4c0,0,0-0.1,0-0.2c0-0.1,0-0.3-0.1-0.5c-0.1-0.4-0.1-1.1-0.1-1.8c0-0.8,0-1.7,0-2.6
						c0-0.5,0.1-1,0.2-1.5c0.1-0.5,0.1-1,0.3-1.5c0.1-0.5,0.2-1,0.4-1.5c0.1-0.5,0.3-1,0.5-1.5c0.2-0.5,0.4-0.9,0.6-1.4
						c0.2-0.4,0.4-0.8,0.6-1.2c0.2-0.4,0.4-0.7,0.6-1c0.2-0.3,0.4-0.5,0.5-0.7c0.3-0.4,0.5-0.6,0.5-0.6c1-1.2,2.7-1.5,3.9-0.5
						c1.2,1,1.4,2.8,0.5,4c-0.1,0.1-0.2,0.3-0.3,0.4l-0.2,0.1c0,0-0.1,0.1-0.4,0.3c-0.1,0.1-0.3,0.2-0.4,0.4
						c-0.2,0.2-0.3,0.4-0.5,0.6c-0.2,0.2-0.4,0.5-0.6,0.7c-0.2,0.3-0.4,0.6-0.6,0.9c-0.2,0.3-0.4,0.7-0.6,1
						c-0.2,0.4-0.4,0.7-0.5,1.1c-0.2,0.4-0.3,0.8-0.4,1.2c-0.1,0.4-0.2,0.8-0.4,1.2c-0.2,0.8-0.4,1.5-0.4,2.2
						c-0.1,0.7-0.1,1.2-0.2,1.6c0,0.2,0,0.3,0,0.4c0,0.1,0,0.2,0,0.2l0,0.1c0,0.8-0.7,1.4-1.5,1.4
						C198.4,126.6,197.8,126.1,197.7,125.4"/>
				</defs>
				<clipPath id="SVGID_54_">
					<use xlink:href="#SVGID_53_"  style="overflow:visible;"/>
				</clipPath>
				<g class="st28">
					<defs>
						<rect id="SVGID_55_" x="-82.6" y="-439" width="1110.2" height="789.5"/>
					</defs>
					<clipPath id="SVGID_56_">
						<use xlink:href="#SVGID_55_"  style="overflow:visible;"/>
					</clipPath>
					<rect x="193.6" y="104.4" class="st29" width="17" height="26.1"/>
				</g>
			</g>
		</g>
		<g>
			<g>
				<defs>
					<rect id="SVGID_57_" x="148.7" y="178.2" width="89.4" height="22.4"/>
				</defs>
				<clipPath id="SVGID_58_">
					<use xlink:href="#SVGID_57_"  style="overflow:visible;"/>
				</clipPath>
				<g class="st30">
					<defs>
						<rect id="SVGID_59_" x="-82.6" y="-439" width="1110.2" height="789.5"/>
					</defs>
					<clipPath id="SVGID_60_">
						<use xlink:href="#SVGID_59_"  style="overflow:visible;"/>
					</clipPath>
					<rect x="144.8" y="174.3" class="st31" width="97.1" height="30.1"/>
				</g>
			</g>
			<rect x="148.7" y="178.2" class="st2" width="89.4" height="22.4"/>
			<rect x="148.7" y="178.2" class="st2" width="7.7" height="22.4"/>
			<g>
				<defs>
					<rect id="SVGID_61_" x="222.7" y="178.2" width="15.4" height="22.4"/>
				</defs>
				<clipPath id="SVGID_62_">
					<use xlink:href="#SVGID_61_"  style="overflow:visible;"/>
				</clipPath>
				<g class="st32">
					<defs>
						<rect id="SVGID_63_" x="-82.6" y="-439" width="1110.2" height="789.5"/>
					</defs>
					<clipPath id="SVGID_64_">
						<use xlink:href="#SVGID_63_"  style="overflow:visible;"/>
					</clipPath>
					<rect x="218.8" y="174.3" class="st33" width="23.1" height="30.1"/>
				</g>
			</g>
			<rect x="222.7" y="178.2" class="st2" width="15.4" height="22.4"/>
		</g>
		<g>
			<defs>
				<rect id="SVGID_65_" x="141.7" y="202.9" width="112.6" height="7.7"/>
			</defs>
			<clipPath id="SVGID_66_">
				<use xlink:href="#SVGID_65_"  style="overflow:visible;"/>
			</clipPath>
			<g class="st34">
				<defs>
					<rect id="SVGID_67_" x="-82.6" y="-438.2" width="1110.2" height="789.5"/>
				</defs>
				<clipPath id="SVGID_68_">
					<use xlink:href="#SVGID_67_"  style="overflow:visible;"/>
				</clipPath>
				<rect x="137.9" y="199" class="st35" width="120.3" height="15.4"/>
			</g>
		</g>
		<rect x="141.7" y="202.9" class="st15" width="112.6" height="7.7"/>
		<rect x="158.7" y="202.9" class="st15" width="10.4" height="7.7"/>
		<g>
			<defs>
				<rect id="SVGID_69_" x="235" y="202.9" width="19.3" height="7.7"/>
			</defs>
			<clipPath id="SVGID_70_">
				<use xlink:href="#SVGID_69_"  style="overflow:visible;"/>
			</clipPath>
			<g class="st36">
				<defs>
					<rect id="SVGID_71_" x="-82.6" y="-438.2" width="1110.2" height="789.5"/>
				</defs>
				<clipPath id="SVGID_72_">
					<use xlink:href="#SVGID_71_"  style="overflow:visible;"/>
				</clipPath>
				<rect x="231.2" y="199" class="st37" width="27" height="15.4"/>
			</g>
		</g>
		<rect x="235" y="202.9" class="st15" width="19.3" height="7.7"/>
		<g>
			<g>
				<defs>
					<rect id="SVGID_73_" x="168.7" y="158.9" width="77.1" height="19.3"/>
				</defs>
				<clipPath id="SVGID_74_">
					<use xlink:href="#SVGID_73_"  style="overflow:visible;"/>
				</clipPath>
				<g class="st38">
					<defs>
						<rect id="SVGID_75_" x="-82.6" y="-439" width="1110.2" height="789.5"/>
					</defs>
					<clipPath id="SVGID_76_">
						<use xlink:href="#SVGID_75_"  style="overflow:visible;"/>
					</clipPath>
					<rect x="164.9" y="155.1" class="st39" width="84.8" height="27"/>
				</g>
			</g>
			<rect x="168.7" y="158.9" class="st2" width="77.1" height="19.3"/>
			<g>
				<defs>
					<rect id="SVGID_77_" x="232.6" y="158.9" width="13.2" height="19.3"/>
				</defs>
				<clipPath id="SVGID_78_">
					<use xlink:href="#SVGID_77_"  style="overflow:visible;"/>
				</clipPath>
				<g class="st40">
					<defs>
						<rect id="SVGID_79_" x="-82.6" y="-439" width="1110.2" height="789.5"/>
					</defs>
					<clipPath id="SVGID_80_">
						<use xlink:href="#SVGID_79_"  style="overflow:visible;"/>
					</clipPath>
					<rect x="228.8" y="155.1" class="st41" width="20.9" height="27"/>
				</g>
			</g>
			<rect x="232.6" y="158.9" class="st2" width="13.2" height="19.3"/>
		</g>
	</g>
	<g>
		<path class="st42" d="M381.3,123.7h3.2l-4,12h-3.2l-2.3-8.1l-2.3,8.1h-3.2l-4-12h3.4l2.4,8.7l2.4-8.7h3.1l2.4,8.7L381.3,123.7z"/>
		<path class="st42" d="M389.6,123.7h9.4v2.5h-6.3v2.2h5.7v2.5l-5.7,0v2.3h6.5v2.5h-9.6V123.7z"/>
		<path class="st42" d="M405.1,123.7h3.1v9.3h5.1v2.7h-8.2V123.7z"/>
		<path class="st42" d="M425.9,126.6c-0.5-0.3-1.1-0.4-1.6-0.4c-0.6,0-1.2,0.2-1.6,0.5c-0.5,0.3-0.9,0.7-1.2,1.2
			c-0.3,0.5-0.4,1.1-0.4,1.8c0,0.6,0.1,1.2,0.4,1.8s0.7,0.9,1.2,1.2c0.5,0.3,1,0.5,1.6,0.5c0.5,0,1-0.1,1.5-0.4c0.5-0.3,1-0.6,1.4-1
			l1.8,2c-0.6,0.7-1.4,1.2-2.3,1.6c-0.9,0.4-1.8,0.6-2.7,0.6c-1.2,0-2.3-0.3-3.2-0.8s-1.7-1.3-2.3-2.2c-0.5-0.9-0.8-2-0.8-3.2
			c0-1.2,0.3-2.2,0.8-3.1c0.6-0.9,1.3-1.7,2.3-2.2s2.1-0.8,3.3-0.8c0.9,0,1.8,0.2,2.6,0.6c0.9,0.4,1.6,0.9,2.2,1.5l-1.8,2.2
			C426.9,127.3,426.4,126.9,425.9,126.6z"/>
		<path class="st42" d="M443.2,124.3c1,0.5,1.8,1.3,2.3,2.2c0.6,0.9,0.8,2,0.8,3.1c0,1.2-0.3,2.2-0.8,3.2c-0.6,0.9-1.3,1.7-2.3,2.2
			c-1,0.5-2.1,0.8-3.3,0.8s-2.3-0.3-3.3-0.8s-1.8-1.3-2.3-2.2s-0.8-2-0.8-3.2c0-1.2,0.3-2.2,0.8-3.1s1.3-1.7,2.3-2.2
			s2.1-0.8,3.3-0.8S442.2,123.8,443.2,124.3z M438.2,126.6c-0.5,0.3-0.9,0.7-1.2,1.3c-0.3,0.5-0.4,1.1-0.4,1.8
			c0,0.7,0.2,1.3,0.5,1.8s0.7,1,1.2,1.3c0.5,0.3,1,0.5,1.6,0.5c0.6,0,1.1-0.2,1.6-0.5c0.5-0.3,0.9-0.7,1.2-1.3
			c0.3-0.5,0.4-1.1,0.4-1.8c0-0.6-0.1-1.2-0.4-1.8c-0.3-0.5-0.7-1-1.2-1.3c-0.5-0.3-1-0.5-1.6-0.5
			C439.3,126.1,438.7,126.3,438.2,126.6z"/>
		<path class="st42" d="M451.8,123.7h3.4l3.5,7l3.5-7h3.4v12h-2.8l0-7.6l-3.1,6.4h-2l-3.1-6.4v7.6h-2.8V123.7z"/>
		<path class="st42" d="M471.8,123.7h9.4v2.5h-6.3v2.2h5.7v2.5l-5.7,0v2.3h6.5v2.5h-9.6V123.7z"/>
	</g>
	<g>
		<g>
			<defs>
				<path id="SVGID_81_" d="M605.9,183.4c0-6.6,5.3-12,11.9-12h7c6.6,0,11.9,5.4,11.9,12c0,6.6-5.3,12-11.9,12h-7
					C611.2,195.3,605.9,190,605.9,183.4z"/>
			</defs>
			<clipPath id="SVGID_82_">
				<use xlink:href="#SVGID_81_"  style="overflow:visible;"/>
			</clipPath>
			<g class="st43">
				<defs>
					<rect id="SVGID_83_" x="-82.6" y="-440.8" width="1110.2" height="789.5"/>
				</defs>
				<clipPath id="SVGID_84_">
					<use xlink:href="#SVGID_83_"  style="overflow:visible;"/>
				</clipPath>
				<rect x="602" y="167.5" class="st44" width="38.5" height="31.6"/>
			</g>
		</g>
		<path class="st2" d="M605.9,183.4c0-6.6,5.3-12,11.9-12h7c6.6,0,11.9,5.4,11.9,12c0,6.6-5.3,12-11.9,12h-7
			C611.2,195.3,605.9,190,605.9,183.4z"/>
		<g>
			<defs>
				<path id="SVGID_85_" d="M610.5,183.7c0-4.7,3.7-8.5,8.3-8.5h5c4.6,0,8.3,3.8,8.3,8.5c0,4.7-3.7,8.5-8.3,8.5h-5
					C614.2,192.2,610.5,188.4,610.5,183.7z"/>
			</defs>
			<clipPath id="SVGID_86_">
				<use xlink:href="#SVGID_85_"  style="overflow:visible;"/>
			</clipPath>
			<g class="st45">
				<defs>
					<rect id="SVGID_87_" x="-82.6" y="-440.8" width="1110.2" height="789.5"/>
				</defs>
				<clipPath id="SVGID_88_">
					<use xlink:href="#SVGID_87_"  style="overflow:visible;"/>
				</clipPath>
				<rect x="606.6" y="171.4" class="st46" width="29.3" height="24.7"/>
			</g>
		</g>
		<path class="st2" d="M610.5,183.7c0-4.7,3.7-8.5,8.3-8.5h5c4.6,0,8.3,3.8,8.3,8.5c0,4.7-3.7,8.5-8.3,8.5h-5
			C614.2,192.2,610.5,188.4,610.5,183.7z"/>
		<g>
			<defs>
				<path id="SVGID_89_" d="M582,162.9h39.3c1.3,0,2.3,1,2.3,2.3V193c0,9.4-7.6,17-17,17h-10c-9.4,0-17-7.6-17-17v-27.8
					C579.7,164,580.7,162.9,582,162.9z"/>
			</defs>
			<clipPath id="SVGID_90_">
				<use xlink:href="#SVGID_89_"  style="overflow:visible;"/>
			</clipPath>
			<g class="st47">
				<defs>
					<rect id="SVGID_91_" x="-82.6" y="-440.8" width="1110.2" height="789.5"/>
				</defs>
				<clipPath id="SVGID_92_">
					<use xlink:href="#SVGID_91_"  style="overflow:visible;"/>
				</clipPath>
				<rect x="575.8" y="159.1" class="st48" width="51.7" height="54.7"/>
			</g>
		</g>
		<path class="st2" d="M582,162.9h39.3c1.3,0,2.3,1,2.3,2.3V193c0,9.4-7.6,17-17,17h-10c-9.4,0-17-7.6-17-17v-27.8
			C579.7,164,580.7,162.9,582,162.9z"/>
	</g>
</g>
</svg>
